# xmcd
#
# Track frame offsets:
#	150
#	21219
#	42172
#	64293
#	79522
#	101417
#	125026
#	145036
#	158486
#	176648
#	194941
#	224407
#	242119
#	263885
#	295014
#	316577
#
# Disc length: 4412 seconds
# Revision: 0
# Processed by: cddbd v1.5.2PL0 Copyright (c) Steve Scherf et al.
# Submitted via: dBpowerAMP V12.0
#
DISCID=e5113a10
DTITLE=Emmylou Harris - London November 23rd 1995
DYEAR=1995
DGENRE=Country
TTITLE0=Waterfall
TTITLE1=Where Will I Be
TTITLE2=Pancho and Lefty
TTITLE3=Orphan Girl
TTITLE4=Goodbye
TTITLE5=Goin' Back to Harlem
TTITLE6=Rock of Ages
TTITLE7=One of These Days
TTITLE8=Every Grain of Sand
TTITLE9=Sweet Old World
TTITLE10=Fire on the Bayou
TTITLE11=Makin' Believe
TTITLE12=Wrecking Ball
TTITLE13=Deeper Well
TTITLE14=Black Hawk
TTITLE15=Wheels
EXTD=
EXTT0=
EXTT1=
EXTT2=
EXTT3=
EXTT4=
EXTT5=
EXTT6=
EXTT7=
EXTT8=
EXTT9=
EXTT10=
EXTT11=
EXTT12=
EXTT13=
EXTT14=
EXTT15=
PLAYORDER=
